<svg xmlns="http://www.w3.org/2000/svg" xmlns:xlink="http://www.w3.org/1999/xlink" width="140" height="1080" viewBox="0 0 140 1080">
  <defs>
    <clipPath id="clip-path">
      <rect id="Ret창ngulo_102" data-name="Ret창ngulo 102" width="140" height="1080" fill="none"/>
    </clipPath>
  </defs>
  <g id="Grupo_58" data-name="Grupo 58" transform="translate(0)" opacity="0.424">
    <g id="Grupo_57" data-name="Grupo 57" transform="translate(0)" clip-path="url(#clip-path)">
      <g id="Ret창ngulo_103" data-name="Ret창ngulo 103" transform="translate(0.284)" fill="#fff" stroke="#707070" stroke-width="1" opacity="0">
        <rect width="143.392" height="1076" stroke="none"/>
        <rect x="0.5" y="0.5" width="142.392" height="1075" fill="none"/>
      </g>
      <path id="Caminho_131" data-name="Caminho 131" d="M4206.995,203.876a156.23,156.23,0,0,1,6.779-20.257v2.076a157.956,157.956,0,0,0-6.033,18.415c-4.726,17.8-4.982,29.15-.828,36.8a22.566,22.566,0,0,0,6.861,7.542v.987c-9.89-6.96-14.217-17.544-6.779-45.562" transform="translate(-4070.009 536.962)" fill="#fff"/>
      <path id="Caminho_132" data-name="Caminho 132" d="M4209.458,262.966c-8.468-12.767-8.278-31.884.541-53.832,5.647-14.053,14.411-28.326,25.465-41.683v1.266c-10.726,13.086-19.239,27.027-24.754,40.754-8.7,21.663-8.925,40.486-.622,53,4.792,7.226,14.1,11.869,25.376,16.367v.9c-11.521-4.581-21.051-9.3-26.005-16.771" transform="translate(-4091.699 523.796)" fill="#fff"/>
      <path id="Caminho_133" data-name="Caminho 133" d="M4204.882,466.884a.466.466,0,0,1-.035-.076c-3.134-9.051-1.081-17.134,1.092-25.689,1.916-7.536,3.894-15.327,2.539-24.478-8.171-27.65,4.918-45.013,20.072-65.115l1.289-1.711q.612-.83,1.219-1.631v1.334c-.205.276-.409.548-.616.827l-1.293,1.716c-15.016,19.919-27.984,37.122-19.923,64.353,0,.02.01.042.013.062,1.392,9.345-.611,17.236-2.551,24.868-2.135,8.407-4.152,16.349-1.127,25.128,4.913,8.476,14.508,18.72,25.5,29.729v.49h-.654c-10.994-11.018-20.586-21.274-25.521-29.807" transform="translate(-4087.293 670.965)" fill="#fff"/>
      <path id="Caminho_134" data-name="Caminho 134" d="M4204.211,258.848c-6.465-31.833,20.539-69.338,47.8-99.272v1.2c-26.935,29.676-53.388,66.642-47.04,97.894,3.854,18.976,19.672,34.034,47.04,44.813v.894c-13.673-5.358-24.583-11.8-32.476-19.19-8.17-7.651-13.325-16.51-15.321-26.336" transform="translate(-4108.244 517.384)" fill="#fff"/>
      <path id="Caminho_135" data-name="Caminho 135" d="M4211.4,447.815c-.343-21.536-.666-41.877,8.6-62.152,6.419-14.041,17.275-26.031,28.772-38.726,5.44-6.005,10.938-12.078,16.056-18.48v1.283c-4.965,6.15-10.263,12-15.5,17.789-11.452,12.646-22.267,24.589-28.628,38.51-9.186,20.09-8.863,40.333-8.521,61.762.235,14.794.479,30.094-2.61,45.584a112.9,112.9,0,0,1-5.5,19.368h-.828c2.149-6.082,4.368-12.373,5.568-19.533,3.073-15.409,2.83-30.658,2.593-45.4" transform="translate(-4121.071 654.901)" fill="#fff"/>
      <path id="Caminho_136" data-name="Caminho 136" d="M4211.465,289.446a54.406,54.406,0,0,1-8.212-30.545c.527-28.023,20.341-57.155,41.676-84.461,6.7-8.572,13.36-16.447,20.05-23.934v1.21c-6.494,7.29-12.961,14.952-19.46,23.27-21.242,27.187-40.969,56.172-41.491,83.931-.447,23.892,12.821,43.06,37.364,53.961,9.2,4.086,17,7.731,23.587,11.221v.934c-6.634-3.531-14.526-7.223-23.881-11.376-13.247-5.884-23.216-14.03-29.633-24.212" transform="translate(-4121.215 509.998)" fill="#fff"/>
      <path id="Caminho_137" data-name="Caminho 137" d="M4257.425,349.036c-8.183-2.749-17.458-5.862-25.24-16.664-12.008-16.673-22.306-31.815-26.687-48.284-4.7-17.649-2.1-35.4,8.171-55.853,17.786-35.42,29.6-49.438,61.613-85.438v1.212c-31.54,35.477-43.3,49.516-60.933,84.631-10.167,20.247-12.744,37.792-8.108,55.212,4.343,16.325,14.6,31.4,26.554,48,7.631,10.6,16.784,13.667,24.858,16.379,6.1,2.046,11.855,3.98,15.861,8.886a19.626,19.626,0,0,1,1.768,2.569v1.647c-3.764-7.566-10.327-9.768-17.857-12.3" transform="translate(-4131.518 503.721)" fill="#fff"/>
      <path id="Caminho_138" data-name="Caminho 138" d="M4228.5,520.208a254.828,254.828,0,0,0,21.433-44.24c5.051-13.732,4.409-28.8,3.787-43.372-.714-16.746-1.39-32.563,5.76-46.687,4.542-8.975,10.014-13.9,15.307-18.658,8.34-7.5,16.965-15.26,22.148-39.325,2.406-11.171,9.547-19.186,16.455-26.939,5.089-5.715,10.292-11.559,13.6-18.707V284.1c-3.358,6.6-8.251,12.1-13.047,17.479-6.833,7.671-13.9,15.6-16.255,26.545-5.245,24.341-13.971,32.191-22.41,39.782-5.237,4.71-10.651,9.579-15.123,18.415-7.043,13.917-6.374,29.62-5.665,46.243.626,14.661,1.272,29.821-3.841,43.721a255.652,255.652,0,0,1-21.509,44.4c-8.225,13.315-16.425,23.237-24.5,29.676h-1.4c8.324-6.4,16.891-16.6,25.257-30.146" transform="translate(-4183.228 617.301)" fill="#fff"/>
      <path id="Caminho_139" data-name="Caminho 139" d="M4552.081,221.52c-15.169,26.6-19.343,56.132-11.45,81.017,11.994,37.812,17.764,64.966,17.764,83.983a72.7,72.7,0,0,1-.745,10.831c-2.566,16.969-11.255,22.677-20.452,28.72-10.467,6.874-21.289,13.983-22.748,39.348-.874,15.178-4.335,24.437-7.389,32.6-2.256,6.034-4.388,11.735-5.1,18.932v.383c0,9.989,2.156,17.94,4.242,25.63,1.84,6.775,3.56,13.117,3.559,20.05,0,7.957-2.269,16.691-9.229,27.739-9.648,15.313-21.813,9.173-34.693,2.672-10.607-5.354-21.576-10.889-32.026-4.915a.291.291,0,0,1-.08.034c-.782.229-1.565.483-2.4.751-6.1,1.972-13.7,4.425-23.544-2.907-8.13-6.052-14.365-13.54-19.622-23.568-4.739-9.041-8.287-19.406-12.041-30.38-6.713-19.625-14.324-41.87-31.443-66.477-13.093-18.818-17.587-31-26.538-55.272-2.013-5.459-4.295-11.648-6.946-18.642-16.591-43.8-38.417-75.543-68.687-99.907-11.213-9.026-24.614-15.472-39.27-20.828v-.891c14.816,5.4,28.375,11.9,39.73,21.04a198.9,198.9,0,0,1,40.125,43.659c11.175,16.4,20.6,34.916,28.819,56.606,2.652,7,4.934,13.188,6.948,18.649,8.925,24.2,13.406,36.349,26.436,55.078,17.19,24.705,24.821,47.012,31.554,66.691,7.741,22.631,13.857,40.508,31.374,53.547,9.544,7.1,16.631,4.815,22.884,2.794.821-.267,1.6-.517,2.377-.746,10.776-6.134,21.909-.515,32.675,4.917,12.572,6.346,24.449,12.341,33.726-2.384,12.817-20.342,9.458-32.73,5.567-47.073-2.1-7.747-4.275-15.757-4.275-25.868,0-.136,0-.274,0-.41l0-.042c.725-7.324,2.877-13.085,5.158-19.181,3.031-8.108,6.468-17.3,7.334-32.341,1.486-25.8,12.484-33.029,23.121-40.016,17.86-11.733,34.73-22.817,3.1-122.539-7.967-25.124-3.769-54.917,11.524-81.735,17.649-30.948,40.161-58.21,65.133-84.568v1.176c-24.719,26.142-47,53.184-64.475,83.836" transform="translate(-4472.792 498.6)" fill="#fff"/>
      <path id="Caminho_140" data-name="Caminho 140" d="M4523.389,243.228c-19.942,55.212-11.37,85.4-5.111,107.449,5.215,18.373,8.662,30.513-8.613,45.727-35.618,27.463-38.77,40.016-42.106,53.306-2.312,9.2-4.7,18.709-17.608,33.613-11.1,12.818-23.458,17.541-34.793,13.293-14.335-5.37-24.9-24.17-26.938-47.9-1.785-5.951-6.291-7.054-11.5-8.329-3.888-.953-8.292-2.03-12-5.417-17.565-17.675-27.625-37.641-38.277-58.781-10.625-21.089-21.613-42.9-41.089-64.941-1.9-2.154-3.692-4.2-5.422-6.176-15.51-17.735-24.873-28.439-50.022-40.778a255.982,255.982,0,0,0-26.659-11.446v-.887a256.556,256.556,0,0,1,26.978,11.564c25.289,12.408,34.69,23.158,50.266,40.967,1.729,1.976,3.516,4.02,5.418,6.172,19.549,22.123,30.56,43.982,41.212,65.12,10.619,21.077,20.65,40.987,38.106,58.554,3.553,3.24,7.675,4.249,11.661,5.225,5.231,1.281,10.172,2.491,12.085,8.937a.432.432,0,0,1,.017.091c1.995,23.422,12.365,41.961,26.422,47.226,11.03,4.133,23.1-.51,33.979-13.074,12.776-14.752,15.138-24.159,17.421-33.258,3.375-13.438,6.563-26.133,42.388-53.754,16.847-14.839,13.463-26.761,8.34-44.807-3.036-10.7-6.816-24.01-7.266-41.366-.523-20.289,3.531-42.091,12.4-66.659,14.9-36.369,51.132-72.991,93.88-114.741v1.134c-42.458,41.475-78.395,77.884-93.165,113.934" transform="translate(-4472.79 491.802)" fill="#fff"/>
      <path id="Caminho_141" data-name="Caminho 141" d="M4562.216,192.355c-37.281,47.26-46.465,86.864-31.7,136.7,5.453,18.4,8.17,33.965,8.17,46.983,0,9-1.3,16.782-3.893,23.43-5.536,14.193-16.141,21.236-25.5,27.45-8.441,5.606-15.733,10.448-18.382,19.228-1.849,6.789-.451,14.355,1.031,22.365,1.868,10.087,3.8,20.52-1.4,29.225-5.066,11.813-12.42,21.363-21.853,28.385a60.256,60.256,0,0,1-29.186,11.572c-20.768,2.335-40.723-6.473-52.079-22.991-20.895-30.388-34.72-59.627-49.355-90.582-8.414-17.795-17.112-36.193-27.43-55.27-44.981-83.161-74.539-95.609-107.405-105.708v-.876c15.476,4.752,30.381,10.067,46.651,23.279,20.19,16.4,39.708,42.734,61.421,82.879,10.329,19.1,19.035,37.507,27.451,55.31,14.623,30.925,28.43,60.133,49.286,90.464,11.195,16.28,30.882,24.961,51.379,22.657,22.37-2.516,40.749-16.913,50.429-39.5a.448.448,0,0,1,.026-.053c5.041-8.42,3.141-18.691,1.3-28.624-1.436-7.758-2.918-15.779-1.011-22.782,2.74-9.086,10.5-14.238,18.718-19.7,9.254-6.149,19.748-13.115,25.187-27.06,6.266-16.069,4.859-38.909-4.3-69.823-7.7-25.982-8.861-48.334-3.658-70.342,5.1-21.586,16.387-42.93,35.5-67.165,14.614-18.522,33.362-38.205,54.927-59.908v1.148c-21.325,21.474-39.868,40.968-54.339,59.309" transform="translate(-4472.792 494.846)" fill="#fff"/>
      <path id="Caminho_142" data-name="Caminho 142" d="M4498.96,324.984c-.23,10.995-.449,21.381-1.917,31.862-3.629,25.919-10.217,43.677-20.732,55.884a52.642,52.642,0,0,1-23.03,15.6c-9.821,3.384-21.569,4.4-34.915,3.019-25.885-2.674-47.356-16.367-63.821-40.7-85.132-125.794-121.392-140.879-151.3-148.561v-.865c13.7,3.523,29.426,8.83,50.77,26.392,27.687,22.782,60.775,62.861,101.156,122.533,16.332,24.128,37.617,37.706,63.271,40.359s44.386-3.353,57.308-18.353c10.4-12.076,16.925-29.691,20.532-55.434,1.458-10.429,1.678-20.788,1.908-31.755.408-19.467.833-39.6,8.235-62.831,8.417-26.42,24.78-52.565,50.024-79.934,20.794-22.543,40.76-41.159,60.109-58.9v1.1c-19.182,17.593-38.967,36.072-59.56,58.395-56.325,61.062-57.232,104.162-58.034,142.188" transform="translate(-4472.79 487.844)" fill="#fff"/>
      <path id="Caminho_143" data-name="Caminho 143" d="M4532.075,204.584c-24.111,30.023-33.583,61.163-41.937,88.637-8.489,27.909-15.82,52.014-35.77,69.6-3.052,2.691-5.947,5.29-8.746,7.805-17,15.271-29.28,26.305-42.14,26.305-11.165,0-22.258-5.182-34.912-16.307-11.674-10.262-24.055-24.914-38.392-41.881-19.332-22.878-43.391-51.352-75.068-79.861-15.054-11.813-32.09-17.381-48.563-22.764-1.1-.359-2.2-.72-3.306-1.083v-.882q1.768.582,3.53,1.158c16.535,5.4,33.634,10.991,48.813,22.9,31.737,28.564,55.816,57.061,75.166,79.959,14.315,16.942,26.678,31.572,38.3,41.794,12.511,11,23.449,16.12,34.427,16.12,12.581,0,24.773-10.953,41.646-26.111,2.8-2.516,5.7-5.118,8.752-7.812,19.773-17.428,27.071-41.424,35.522-69.21,8.378-27.548,17.875-58.772,42.087-88.926,25.922-32.278,57.909-61.341,85.064-85.4v1.087c-27.023,23.958-58.757,52.839-84.479,84.872" transform="translate(-4472.79 484.038)" fill="#fff"/>
      <path id="Caminho_144" data-name="Caminho 144" d="M4570.879,157.1c-33.179,31.066-67.49,63.188-83.206,124.219q-.8,2.708-1.529,5.234c-8.964,30.818-12.319,42.349-53.22,60.6a108.44,108.44,0,0,0-12.9,7.33c-6.285,3.942-12.782,8.019-19.656,10.082a27.731,27.731,0,0,1-21.989-2.037c-35.854-19.088-51.713-39.341-68.5-60.782-9.346-11.931-19.008-24.27-32.641-37.275-15.814-14.248-37.547-22.816-60.556-31.89-4.451-1.754-8.947-3.529-13.436-5.361v-.9c4.578,1.871,9.162,3.681,13.7,5.47,23.075,9.1,44.868,17.693,60.793,32.042,13.686,13.052,23.367,25.413,32.726,37.369,16.736,21.372,32.543,41.558,68.252,60.57,15.222,8.1,28.285-.091,40.917-8.016a108.474,108.474,0,0,1,13-7.381c40.565-18.1,43.888-29.529,52.773-60.073q.738-2.531,1.525-5.223a212.1,212.1,0,0,1,14.923-40.849,200.63,200.63,0,0,1,20-32.525c14.642-19.52,31.866-35.645,48.523-51.241q2.724-2.55,5.445-5.105c15.379-14.46,28.2-26.271,40.734-37.739v1.1c-12.374,11.323-25.055,23.011-40.229,37.276q-2.721,2.558-5.445,5.105" transform="translate(-4472.79 479.956)" fill="#fff"/>
      <path id="Caminho_145" data-name="Caminho 145" d="M4557.742,165.087c-41.066,38-56.724,67.339-69.3,90.914-6.544,12.263-12.2,22.851-20.112,32.017-1.254,1.451-2.6,3.063-4.018,4.77-15.422,18.524-41.234,49.526-85.87,33.918-25.809-9.024-48.75-29.411-70.933-49.125-17.6-15.637-35.791-31.806-54.789-41.471-10.894-5.541-22.68-9.278-34.079-12.892-5.078-1.611-10.271-3.262-15.394-5.073v-.887c5.189,1.84,10.459,3.516,15.612,5.149,11.426,3.625,23.241,7.371,34.189,12.94,19.085,9.71,37.318,25.913,54.951,41.582,22.129,19.665,45.011,40,70.679,48.977,44.159,15.441,69.763-15.309,85.06-33.682,1.424-1.709,2.767-3.324,4.027-4.782,7.856-9.093,13.486-19.643,20.006-31.861,12.611-23.631,28.306-53.041,69.474-91.133,16.148-14.942,30.406-28.053,42.987-39.619q8.689-7.99,16.33-15.022v1.1q-7.439,6.85-15.829,14.561c-12.58,11.566-26.838,24.676-42.985,39.617" transform="translate(-4472.792 476.855)" fill="#fff"/>
      <path id="Caminho_146" data-name="Caminho 146" d="M4540.112,176.151c-27.639,23.566-44.458,50.216-59.3,73.731-14.682,23.265-27.361,43.356-46.152,52.048-29.993,13.874-42.419,3.614-55.572-7.25-7.611-6.285-15.481-12.785-27.244-15.343-34.192-7.44-48.765-19.115-62.861-30.406-9.527-7.631-18.525-14.839-33.053-19.872-19.479-6.749-36.987-13.057-52.691-19v-.891c15.761,5.962,33.348,12.3,52.926,19.083,14.649,5.075,23.7,12.324,33.279,20,14.025,11.236,28.528,22.855,62.552,30.257,11.937,2.6,19.88,9.157,27.562,15.5,12.969,10.712,25.22,20.828,54.8,7.145,18.582-8.594,31.2-28.593,45.815-51.749,14.87-23.564,31.725-50.272,59.472-73.927,19.25-15.1,35.9-31.188,52-46.747,8.051-7.78,16.283-15.732,24.909-23.638v1.1c-8.44,7.749-16.5,15.539-24.394,23.165-16.116,15.574-32.779,31.679-52.049,46.79" transform="translate(-4472.792 473.019)" fill="#fff"/>
      <path id="Caminho_147" data-name="Caminho 147" d="M4487.632,224.84c-10.945,14.609-22.264,29.714-38.912,37.572-11.975,6.13-28.394,9.267-47.483,9.073-20.134-.207-42.2-4.182-63.816-11.5-9.416-3.58-18.251-9.149-28.482-15.6-15.906-10.026-33.934-21.389-60.7-29.511-16.866-5.116-31.779-9.85-44.992-14.289V199.7c13.262,4.46,28.242,9.217,45.2,14.362,26.865,8.15,44.938,19.542,60.885,29.593,10.2,6.426,19,11.978,28.337,15.527,42.25,14.3,85.714,15.273,110.737,2.462,16.487-7.781,27.744-22.807,38.63-37.338,28.27-37.723,64.217-67.542,98.981-96.382,10.144-8.415,20.4-16.924,30.544-25.694v1.078c-9.992,8.625-20.088,17-30.074,25.288-34.729,28.809-70.638,58.6-98.85,96.244" transform="translate(-4472.792 470.688)" fill="#fff"/>
      <path id="Caminho_148" data-name="Caminho 148" d="M4482.083,218.817c-14.679,15.674-29.742,26.314-46.054,32.534-14.667,5.592-30.1,7.484-47.2,5.786-31.9-3.17-64.767-18.43-99.562-34.586-12.159-5.646-24.733-11.486-37.467-16.886-14.8-6.905-31.886-11.307-48.559-15.463v-.865c16.761,4.178,33.948,8.6,48.852,15.548,12.733,5.4,25.313,11.241,37.479,16.889,70.54,32.757,131.462,61.045,191.964-3.556,27.691-30.152,59.527-56.424,90.314-81.833,15.36-12.676,30.516-25.186,44.7-37.855v1.125c-13.943,12.4-28.89,24.738-44.236,37.4-30.766,25.389-62.579,51.644-90.237,81.759" transform="translate(-4472.792 467.675)" fill="#fff"/>
      <path id="Caminho_149" data-name="Caminho 149" d="M4481.259-243.325c-1.443,10.628-3.243,21.982-4.987,32.964-3.671,23.143-7.469,47.075-8.391,66.924-.3,6.506,1.521,13.155,3.45,20.195,2.291,8.36,4.89,17.834,4.2,28.608-1.307,20.558-.1,32.4,3.819,37.284,2.444,3.048,5.784,3.293,9.318,3.551,4.225.308,9.013.657,12.9,6,6.6,9.07,13.486,16.858,20.142,24.389,14.382,16.274,26.264,29.72,26.264,46.538a39.416,39.416,0,0,1-1.639,11.035c-2.432,7.729-7.62,15.142-13.626,23.725-10.154,14.511-21.663,30.955-24.238,55.091-1.426,13.36,2.974,27.924,9.061,48.077,1.921,6.363,3.907,12.941,5.942,20.24a223.026,223.026,0,0,1,4.559,22.844c3.123,18.883,6.664,40.288,19.353,62.328,12.149,21.106,20.056,37.61,24.166,50.461,4.076,12.738,4.652,22.621,1.76,30.215-6.336,16.633-28.374,22.138-61.735,30.469-18.72,4.674-39.937,9.973-63.907,18.533-9.153,2.685-17.239,1.843-23.381-2.435-5.937-4.137-9.85-11.3-11.32-20.7l0-.04c-.709-10.7-1.038-22.116,1.312-33.147a56.729,56.729,0,0,1,16.741-30.264c2.381-2.266,4.864-4.322,7.264-6.312,7.242-6,14.083-11.664,16.373-21.677,4.306-18.827,6.5-54.3,2.35-85.658-3.659-27.69-13.5-62.849-39.607-73.1-8.875-3.69-18.273-3.235-28.223-2.75-14.64.711-31.231,1.519-51.133-10.138l-.027-.018c-13.139-9.307-16.1-15.135-14.4-28.346,1.924-14.975-4.182-20.585-9.643-22.655-5.678-2.152-13.316-1.468-20.954,1.876-7.6,3.326-13.807,8.656-17.028,14.62-3.072,5.686-4.758,14.376,4.648,23.5,6.086,4.919,14.282,5.109,21.513,5.28,6.233.147,11.617.272,13.434,3.785,1.6,3.081.228,8.494-4.3,17.034a.482.482,0,0,1-.06.085c-10.927,11.969-9.613,27.967-8.221,44.9,1.143,13.888,2.324,28.252-2.721,42.16-4.08,17.321-15.816,30.562-33.943,38.291-.342.145-.69.287-1.036.428v-.914c16.807-6.891,29.8-19.166,34.233-38.04l.016-.049c4.987-13.731,3.815-28,2.679-41.8-1.407-17.12-2.736-33.29,8.407-45.533,4.36-8.228,5.719-13.36,4.274-16.151-1.6-3.093-6.779-3.215-12.776-3.355-6.987-.165-15.684-.368-21.971-5.457l-.027-.024c-7.656-7.419-9.365-16.144-4.815-24.567,3.31-6.123,9.653-11.581,17.41-14.977,7.807-3.418,15.644-4.106,21.5-1.887a14.949,14.949,0,0,1,8.445,7.752c1.96,4.086,2.535,9.407,1.712,15.815-1.665,12.934,1.092,18.337,14.043,27.512,19.707,11.539,36.178,10.737,50.714,10.031,10.033-.488,19.511-.949,28.528,2.8,26.46,10.389,36.415,45.849,40.1,73.769a277.522,277.522,0,0,1,2.22,35.9c0,19.83-1.876,38.236-4.585,50.082-2.356,10.3-9.3,16.055-16.655,22.145-2.391,1.981-4.862,4.028-7.224,6.274-19.038,18.121-19.232,40.909-17.79,62.7,1.432,9.157,5.224,16.111,10.969,20.111,5.953,4.147,13.823,4.953,22.741,2.337,23.984-8.563,45.22-13.867,63.957-18.546,33.124-8.273,55.009-13.738,61.191-29.97,5.62-14.756-2.116-38.652-25.867-79.9-12.769-22.18-16.323-43.668-19.458-62.627a222.214,222.214,0,0,0-4.539-22.749c-2.032-7.288-4.018-13.863-5.937-20.22-6.117-20.255-10.539-34.891-9.092-48.438,2.6-24.364,14.175-40.907,24.39-55.5,5.967-8.525,11.12-15.89,13.507-23.479,6.352-21.875-7.24-37.255-24.447-56.726-6.669-7.546-13.564-15.349-20.19-24.449-3.676-5.049-8.082-5.37-12.344-5.681-3.7-.27-7.2-.526-9.851-3.837-4.112-5.129-5.35-16.817-4.007-37.9.673-10.621-1.79-19.612-4.174-28.308-1.948-7.112-3.791-13.828-3.48-20.48.925-19.9,4.726-43.855,8.4-67.023,1.742-10.976,3.542-22.327,4.984-32.944,1.467-10.808,2.737-22.214,3.965-33.247,1.361-12.236,2.751-24.707,4.451-36.788h.784c-1.706,12.109-3.1,24.618-4.466,36.89-1.229,11.036-2.5,22.45-3.967,33.269" transform="translate(-4534.85 132.177)" fill="#fff"/>
      <path id="Caminho_150" data-name="Caminho 150" d="M4533.574,165.675a523.83,523.83,0,0,0-55.677,46.437c-26.807,25.315-47.747,35.838-72.271,36.318s-53.839-9.059-101.159-32.935c-26-13.119-68.039-25.229-95.855-33.243q-2.792-.8-5.369-1.548v-.873q2.663.77,5.566,1.606c27.842,8.021,69.918,20.142,95.982,33.294,88.608,44.706,122.483,44.067,172.6-3.257a524.409,524.409,0,0,1,55.747-46.5c6.66-4.911,12.948-9.55,19.706-15.126,24.83-20.489,45.625-37.886,63.712-54.737v1.11c-17.983,16.719-38.636,33.991-63.244,54.3-6.774,5.59-13.071,10.234-19.738,15.153" transform="translate(-4472.792 464.893)" fill="#fff"/>
      <path id="Caminho_151" data-name="Caminho 151" d="M4443.533,225.514c-24.123,12.8-44.834,17.234-65.187,13.945-18.323-2.963-34.634-11.934-51.9-21.43-13.79-7.586-28.05-15.427-45.035-21.41-9.106-3.208-18.578-6.058-28.6-9.075-12.541-3.774-25.509-7.676-37.918-12.4-2.9-1.1-5.764-2.168-8.539-3.2q-1.563-.58-3.1-1.156V169.9l3.355,1.25c2.776,1.032,5.646,2.1,8.543,3.2,12.385,4.71,25.34,8.609,37.869,12.379,10.034,3.019,19.513,5.873,28.638,9.086,17.04,6,31.327,13.861,45.145,21.459,34.391,18.912,64.091,35.246,116.4,7.48,17.883-9.492,59.45-39.744,111.187-80.924,18.708-14.89,41.569-33.588,62.176-53.289v1.121c-20.5,19.544-43.152,38.071-61.718,52.848-51.774,41.208-93.382,71.49-111.305,81" transform="translate(-4472.792 461.17)" fill="#fff"/>
      <path id="Caminho_152" data-name="Caminho 152" d="M4601.344,94.1c-24.095,22.755-52.108,41.562-76.474,57.4-126.712,82.385-130.75,80.28-180.165,54.5a524.729,524.729,0,0,0-53.494-24.939q-4.75-1.875-9.444-3.714c-22.174-8.7-43.119-16.92-60.017-26.585a121.618,121.618,0,0,1-18.508-12.707v-1.072a119.836,119.836,0,0,0,18.868,13.034c16.851,9.637,37.771,17.845,59.921,26.538q4.69,1.84,9.446,3.714a525.363,525.363,0,0,1,53.563,24.972c24.4,12.729,37.848,19.741,60.677,13.226,22.459-6.408,53.4-25.2,118.756-67.695,24.338-15.822,52.317-34.608,76.362-57.317q8.661-8.178,15.72-16.234v1.228q-6.877,7.77-15.21,15.643" transform="translate(-4472.79 450.327)" fill="#fff"/>
      <path id="Caminho_153" data-name="Caminho 153" d="M4224.9-4.414c-.956-1.653-1.88-3.108-2.774-4.516-3.636-5.73-6.509-10.256-8.051-22.025q-.143-1.094-.291-2.241a228.621,228.621,0,0,0-4.347-25.407l-.546-2.219c-4.451-18.068-9.052-36.75-2.038-47.966,3.43-5.485,9.252-8.669,17.809-9.735a65.871,65.871,0,0,1,16.886.483v.856a64.972,64.972,0,0,0-16.812-.5c-8.307,1.034-13.947,4.1-17.242,9.369-6.815,10.9-2.261,29.39,2.146,47.273l.545,2.221a229.706,229.706,0,0,1,4.366,25.507q.146,1.146.29,2.239c1.516,11.573,4.344,16.027,7.923,21.666.9,1.415,1.826,2.877,2.792,4.545,3.028,5.225,6.6,10.3,10.058,15.213,1.994,2.834,4.011,5.7,5.934,8.616v1.441c-2.062-3.166-4.283-6.323-6.55-9.543-3.466-4.926-7.051-10.019-10.1-15.276" transform="translate(-4097.785 290.674)" fill="#fff"/>
      <path id="Caminho_154" data-name="Caminho 154" d="M4603.643,87.948c-18.08,18.829-43,38.056-72.077,55.608-13.876,8.377-26.736,16.775-39.171,24.9-20.336,13.281-39.542,25.825-57.738,34.459-20.165,9.569-37.286,13.506-53.881,12.392-20.09-1.35-35.907-11.276-48.615-19.25-6.448-4.048-12.018-7.542-17.263-9.51-67.905-25.471-86.049-34.827-111.656-69.518v-1.357c25.828,35.208,43.7,44.492,111.908,70.079,5.316,1.994,10.915,5.508,17.4,9.576,12.638,7.932,28.365,17.8,48.275,19.139,35.923,2.413,69.13-19.275,111.17-46.732,12.442-8.124,25.309-16.528,39.2-24.912,29.015-17.515,53.883-36.7,71.916-55.479a195.928,195.928,0,0,0,13.449-15.483V73.14a196.365,196.365,0,0,1-12.913,14.808" transform="translate(-4472.792 445.954)" fill="#fff"/>
      <path id="Caminho_155" data-name="Caminho 155" d="M4209.636-43.916c-.63-2.854-1.285-5.5-1.917-8.065-2.26-9.149-4.4-17.791-4.475-32.565,0-.122,0-.243,0-.365,0-17.2,6.53-27.662,12.03-33.417,6.572-6.878,15.65-9.556,27.755-8.188a54.7,54.7,0,0,1,12.026,2.961v.887a54.4,54.4,0,0,0-12.106-3.01c-11.864-1.341-20.74,1.263-27.137,7.956-5.391,5.642-11.792,15.9-11.792,32.811v.359c.081,14.667,2.2,23.256,4.449,32.351.634,2.567,1.291,5.222,1.923,8.088,6.711,30.406,17.734,55.708,33.7,77.35l.015.024a126.074,126.074,0,0,1,10.947,21.586v2.177a126.181,126.181,0,0,0-11.575-23.27c-16.035-21.741-27.1-47.148-33.842-77.671" transform="translate(-4111.289 284.142)" fill="#fff"/>
      <path id="Caminho_156" data-name="Caminho 156" d="M4226.893,12.956c-18.968-39.684-25.861-66.285-23.046-88.949a90.728,90.728,0,0,1,19.627-46.315c8.935-10.771,19.745-17.847,28.2-18.468,7.333-.713,14.279.695,21.247,2.93v.88c-6.966-2.252-13.9-3.679-21.185-2.97-8.269.608-18.875,7.578-27.683,18.194a89.862,89.862,0,0,0-19.434,45.862c-2.792,22.479,4.078,48.93,22.965,88.448,6.125,12.814,11.248,21.492,15.768,29.147,11.456,19.406,19.2,32.516,29.569,90.89V137.1c-10.735-61.918-18.536-75.135-30.221-94.929-4.53-7.669-9.662-16.363-15.8-29.214" transform="translate(-4129.152 272.659)" fill="#fff"/>
      <path id="Caminho_157" data-name="Caminho 157" d="M4542.332,133.643c-27.806,17.671-65.555,38.978-109.257,63.645-18.429,11.069-33.835,14.872-49.949,12.326-15.124-2.388-30.058-10.138-48.964-19.948-7.89-4.095-16.832-8.736-26.643-13.4-26.058-9.679-42.98-16.432-61.656-32.5-11.956-10.287-24.55-24.1-42.621-47.246V95.193c43.722,56.043,60.466,63.906,104.545,80.28l.03.013c9.827,4.675,18.779,9.32,26.677,13.418,37.114,19.26,59.516,30.885,98.216,7.64,43.7-24.667,81.441-45.969,109.231-63.629,28.217-17.932,45.781-31.89,56.948-45.252a92.909,92.909,0,0,0,17.666-31.6V58.8a94.351,94.351,0,0,1-17.093,29.433c-11.224,13.429-28.842,27.436-57.13,45.413" transform="translate(-4472.792 433.095)" fill="#fff"/>
      <path id="Caminho_158" data-name="Caminho 158" d="M4604.688-146.063c-15.278-6.932-22.984-8.719-27.481-6.375-4.178,2.177-5.739,8.028-8.1,16.887a191.965,191.965,0,0,1-6.114,19.687,215.394,215.394,0,0,1-8.981,19.578c-7.491,15.008-15.236,30.525-17.4,53.306-2.176,22.894,5.745,36.71,16.705,55.831,4.263,7.437,9.094,15.862,13.82,25.812,14.345,23.91,28.115,60.461,37.782,100.287,8.672,35.725,12.234,66.94,9.072,79.52-5.562,22.14-21.25,42.783-47.965,63.114-23.3,17.733-52.478,33.441-82.829,49.3-11.6,6.062-20.924,11.864-29.152,16.984-7.918,4.924-14.755,9.178-22.191,12.874-17.931,8.912-34.8,11.29-53.077,7.486-16.687-3.471-33.013-11.6-51.918-21.018q-3.3-1.644-6.7-3.327l-4.791-2.368c-25.85-12.769-50.267-24.829-66.134-37.109-12.6-9.755-31.028-33.116-45.989-52.6v-1.315c15.037,19.6,33.743,43.4,46.439,53.229,15.8,12.234,40.188,24.279,66,37.03l4.792,2.368q3.4,1.682,6.7,3.327c36.719,18.288,65.722,32.733,104.351,13.533,7.4-3.679,14.227-7.925,22.128-12.84,8.24-5.125,17.579-10.937,29.2-17.009,30.321-15.848,59.466-31.54,82.721-49.236,26.56-20.213,42.148-40.7,47.662-62.644,3.128-12.448-.435-43.49-9.073-79.083-9.65-39.753-23.387-76.222-37.693-100.06a.169.169,0,0,1-.021-.036c-4.714-9.928-9.54-18.344-13.8-25.772-5.463-9.53-10.181-17.762-13.3-26.577a67.18,67.18,0,0,1-3.515-29.787c2.181-22.947,9.965-38.541,17.494-53.619,3.3-6.608,6.413-12.849,8.945-19.5a191.673,191.673,0,0,0,6.085-19.6c2.42-9.075,4.019-15.071,8.51-17.412,4.723-2.462,12.606-.679,28.115,6.357a63.686,63.686,0,0,1,8.382,5.006c1.03.686,2.091,1.39,3.187,2.094v.978c-1.239-.791-2.434-1.582-3.591-2.351a63.158,63.158,0,0,0-8.276-4.948" transform="translate(-4472.79 261.842)" fill="#fff"/>
      <path id="Caminho_159" data-name="Caminho 159" d="M4601.954-154.437c-5.485-6.673-10.222-12.435-19.563-13.348-7.37-.722-12.556,2.46-16.324,10.011-3.495,7-5.528,17.027-7.883,28.631-3.01,14.843-6.425,31.665-13.935,47.433-24.057,50.515-26.994,74.442,3.007,116.557l.023.038c26.083,46.246,45.617,87.093,56.186,136.117,3.673,17.045,5.883,30.6,5.883,42.311,0,23.408-8.832,39.437-32.448,61.143-38.821,35.68-53.611,41.411-74.083,49.345-15.061,5.835-32.129,12.45-63.49,32.55-22.919,14.69-45.794,18.352-71.988,11.521-23.554-6.143-47.631-20.247-73.122-35.179-7.477-4.38-15.206-8.908-23.117-13.353-22.817-12.82-39.619-34.294-55.869-55.062-3.935-5.031-7.905-10.106-11.99-15.1v-1.265c4.292,5.223,8.455,10.543,12.581,15.815,16.2,20.7,32.953,42.115,55.633,54.859,7.916,4.449,15.651,8.979,23.13,13.36,50.824,29.772,94.717,55.485,144.35,23.673,31.422-20.14,49.276-27.058,63.621-32.617,20.4-7.9,35.131-13.613,73.844-49.194,35.116-32.276,37.242-51.9,26.309-102.618-10.542-48.908-30.043-89.68-56.08-135.85-15.2-21.349-21.74-37.824-21.853-55.087-.125-18.769,7.421-38.494,18.784-62.355,7.465-15.67,10.867-32.434,13.867-47.226,2.369-11.666,4.413-21.742,7.96-28.853,3.932-7.883,9.357-11.2,17.073-10.448,9.644.943,14.708,7.1,20.07,13.625,3.923,4.772,7.944,9.659,14.024,13.288v.942c-6.474-3.779-10.73-8.957-14.6-13.667" transform="translate(-4472.792 250.049)" fill="#fff"/>
      <path id="Caminho_160" data-name="Caminho 160" d="M4235.2-206.439c-.934-11.918,2.02-19.8,4.625-26.753,5.132-13.685,8.521-22.728-24.456-50.236-7.4-6.172-10.253-17.325-12.125-30.056h.787c1.844,12.5,4.652,23.415,11.81,29.386,15.634,13.041,23.9,22.537,26.8,30.79,2.691,7.66.474,13.578-2.1,20.433-4.979,13.281-11.8,31.471,14.153,76.14,4.226,7.743,13.7,21.639,25.133,36.378v1.341c-11-14.137-21.214-28.885-25.793-37.278-11.592-19.954-17.753-36.357-18.836-50.145" transform="translate(-4136.063 132.177)" fill="#fff"/>
      <path id="Caminho_161" data-name="Caminho 161" d="M4472.079-283.194c-.9,11.615-3.509,25.3-6.269,39.78-6.151,32.276-13.122,68.858-3.756,96.036,2.943,8.543,7.066,12.568,11.43,16.828,4.846,4.732,9.857,9.623,13.906,21,2.583,7.259,2.929,13.562,3.264,19.654.567,10.32,1.155,20.989,12.685,36.826a176.624,176.624,0,0,0,14.607,16.791C4534.982-18.259,4552.6.371,4541.55,35.844l-.013.036c-5.775,14-11.855,22.991-17.221,30.917-7.229,10.683-13.47,19.906-16.576,37.755-2.238,12.867,7.681,25.616,17.271,37.944,14.969,19.241,13.875,27,12.064,39.862-1.44,10.216-3.412,24.206,1.981,50.361,5.375,26.079,21.326,45.533,35.4,62.7,8.843,10.786,16.479,20.1,20.341,29.522,4.294,10.481,3.18,19.7-3.5,29-33.939,47.224-56.142,50.954-77.613,54.563-12.114,2.036-24.642,4.138-39.014,14.322-14.875,10.537-29.235,17.366-42.683,20.3a66.171,66.171,0,0,1-35.882-1.7c-9.376-3.193-18.486-8.732-27.072-16.465a142.4,142.4,0,0,1-22.686-27c-11.991-18.021-23.332-41.5-34.668-71.771-8.291-22.134-20.228-20.331-35.344-18.049-10.8,1.631-23.03,3.478-36.779-2.6q-3.871-1.712-7.534-3.133v-.894q3.806,1.475,7.826,3.248c13.557,5.993,25.682,4.16,36.38,2.545,7.814-1.181,14.566-2.2,20.626-.111,6.7,2.308,11.634,8.242,15.541,18.676,15.876,42.394,41.851,100.414,83.941,114.746,23.212,7.9,49.425,1.678,77.911-18.5,14.512-10.282,27.123-12.4,39.318-14.449,21.322-3.581,43.37-7.286,77.119-54.247,14.148-19.689.491-36.349-16.8-57.442-14.135-17.239-30.155-36.781-35.576-63.072-5.425-26.309-3.441-40.391-1.992-50.673,1.839-13.052,2.854-20.242-11.888-39.19-9.707-12.479-19.748-25.384-17.441-38.644,3.138-18.038,9.428-27.334,16.714-38.1,5.34-7.89,11.391-16.833,17.128-30.745C4551.7.6,4534.268-17.84,4517.4-35.671a177.338,177.338,0,0,1-14.676-16.875c-11.68-16.044-12.273-26.848-12.85-37.3-.33-6.029-.673-12.265-3.212-19.4-3.983-11.192-8.923-16.015-13.7-20.679-4.437-4.331-8.628-8.422-11.639-17.16-9.446-27.407-2.449-64.115,3.725-96.5,2.755-14.46,5.359-28.116,6.255-39.677.619-9.16.8-16.4.955-22.782.067-2.654.129-5.116.216-7.44h.775c-.089,2.33-.149,4.8-.215,7.464-.158,6.393-.338,13.642-.959,22.826" transform="translate(-4501.564 132.177)" fill="#fff"/>
      <path id="Caminho_162" data-name="Caminho 162" d="M4582.778-111.413l-1.318-2.184c-4.4-7.283-13.168-12.959-23.32-19.534-14.043-9.093-29.96-19.4-39.579-37.34-8.626-16.091-8.775-33.056-8.918-49.463-.162-18.471-.314-35.917-13.1-49.254-6.207-6.747-12.029-11.055-17.3-12.805-4.72-1.568-9.034-1.1-12.821,1.4-15.634,10.316-19.036,52.935-12.885,74.237,3.134,10.938,9.923,18.012,17.113,25.5,12.322,12.84,26.288,27.39,26.6,65.576.1,12.93,10.509,25.933,19.688,37.405,2.533,3.168,4.928,6.16,7.029,9.046,3.262,4.479,5.935,7.927,8.083,10.7,8.054,10.385,9.967,12.852,13.988,32.191l.009.051c1.736,18.968-6.586,33.755-15.4,49.407-2.853,5.067-5.8,10.307-8.509,15.837-15.1,34.885-4.731,52.11,6.25,70.345,4.741,7.876,9.645,16.018,12.911,25.975,2.657,9.812,8.282,17.9,14.235,26.467,7.078,10.182,14.4,20.708,16.3,34.4,2.853,20.494,8.725,33.419,14.4,45.918,4.557,10.029,8.859,19.5,11.546,32.39,4.758,22.8,4.825,37.318.234,50.1-4.5,12.546-13.5,23.941-32.094,40.645-34.145,30.68-54.631,38.479-76.321,46.736-7.512,2.859-15.282,5.817-23.679,9.8-7.107,3.351-13.158,7.448-19.563,11.784-13.513,9.151-27.489,18.615-52.751,21.621-12.9,1.535-36.588-5.465-63.353-18.725-25.823-12.793-49.394-28.92-61.515-42.084-8.678-9.425-14.091-19.228-18.44-27.1-3.3-5.971-6.145-11.127-9.467-14.456-6.8-6.814-13.168-10.579-19.911-14.565a119.74,119.74,0,0,1-17.682-12.06V325.48a117.431,117.431,0,0,0,18.052,12.39c6.786,4.013,13.2,7.8,20.065,14.687,3.4,3.413,6.279,8.616,9.606,14.643,4.329,7.836,9.714,17.588,18.326,26.94,12.057,13.1,35.541,29.159,61.286,41.914,26.645,13.2,50.176,20.173,62.949,18.655,25.086-2.986,38.983-12.4,52.423-21.5,6.43-4.354,12.506-8.467,19.665-11.842,8.421-4,16.2-6.963,23.73-9.828,21.625-8.231,42.048-16.006,76.084-46.589,34.48-30.983,40.386-47.788,31.6-89.912-2.668-12.791-6.951-22.221-11.487-32.2-5.7-12.557-11.6-25.54-14.475-46.166-1.876-13.478-9.133-23.92-16.155-34.018-5.733-8.248-11.664-16.777-14.353-26.714-3.227-9.839-8.1-17.94-12.823-25.774-5.666-9.411-11.02-18.3-13.1-29.352-2.337-12.417-.177-25.7,6.808-41.834,2.726-5.572,5.681-10.822,8.54-15.9,8.735-15.519,16.986-30.179,15.288-48.855-3.978-19.115-5.676-21.305-13.822-31.808-2.151-2.776-4.828-6.228-8.1-10.719-2.09-2.87-4.479-5.855-7.008-9.015-9.267-11.582-19.77-24.709-19.876-37.951-.305-37.828-14.146-52.25-26.359-64.973-7.263-7.567-14.122-14.714-17.315-25.859-3.088-10.7-3.784-27.011-1.772-41.56,1.349-9.763,5.092-27.116,15-33.65,3.983-2.629,8.509-3.13,13.45-1.49,5.4,1.793,11.324,6.17,17.617,13.01,13.019,13.576,13.173,31.195,13.335,49.848.143,16.3.289,33.149,8.812,49.047,9.518,17.751,25.344,28,39.307,37.04,10.235,6.628,19.073,12.352,23.571,19.8l1.319,2.184c10.706,17.744,19.838,32.875,33.127,44.067v1.158q-1.331-1.1-2.621-2.268c-12.139-10.98-20.951-25.585-31.155-42.494" transform="translate(-4472.79 156.393)" fill="#fff"/>
      <path id="Caminho_163" data-name="Caminho 163" d="M4462.614-235.691a144.81,144.81,0,0,0-5.013,18.856c-7.456,42.235-.911,62.967,30.452,96.457,8.575,9.155,8.571,19.271,8.563,29.976-.013,12.595-.013,25.612,12.767,39.916,23.642,26.458,35.18,47.347,36.31,65.735,1.014,16.51-6.456,29.1-14.366,42.425-5.131,8.645-10.436,17.582-13.788,28.154-9.978,31.465-1.359,41.576,7.767,52.282,1.259,1.479,2.563,3.008,3.814,4.592,11.55,14.62,14.286,23.992,14.286,33.232a96.245,96.245,0,0,1-.964,11.671c-1.2,9.8-2.693,21.993,2.049,41.166,6.808,25.1,21.667,42.882,34.776,58.572,13.322,15.94,24.823,29.705,23.664,46.538-1.009,14.639-11.481,30.315-32.958,49.33-25.909,22.943-46.836,30.534-69.573,37.449l-.025.007c-20.045,4.5-32.389,12.892-44.327,21-11.895,8.081-23.127,15.714-40.48,17.8l-.029,0c-30.2,1.049-54.832-15.191-70.178-29-18.664-16.789-34.331-39.544-42.988-62.428-10.816-28.6-22.975-31.832-47.2-38.278-8.64-2.3-19.171-5.105-31.642-9.69v-.891c12.549,4.628,23.144,7.451,31.827,9.761,11.879,3.162,21.263,5.659,28.809,10.927,7.885,5.5,13.722,14.093,18.925,27.849,17.159,45.361,62.386,92.632,112.406,90.907,17.169-2.072,28.328-9.652,40.142-17.678,11.993-8.148,24.392-16.574,44.566-21.109,22.645-6.887,43.492-14.451,69.282-37.287,21.3-18.861,31.679-34.348,32.674-48.739,1.132-16.47-10.264-30.114-23.465-45.911-13.167-15.755-28.088-33.613-34.947-58.91-4.787-19.346-3.283-31.632-2.073-41.505,1.7-13.877,2.926-23.905-13.141-44.243-1.243-1.571-2.54-3.1-3.8-4.568-9.288-10.9-18.059-21.189-7.93-53.131,3.382-10.666,8.714-19.649,13.87-28.336C4546.5,30.563,4560.155,7.545,4508.827-49.9c-13-14.547-13-28.336-12.987-40.5.013-10.521.012-20.467-8.33-29.373-31.6-33.738-38.187-54.635-30.67-97.217a145.817,145.817,0,0,1,5.04-18.972c4.85-15.387,10.8-34.279,10.505-77.519h.777q.01,1.565.009,3.088c0,41.2-5.806,59.628-10.557,74.705" transform="translate(-4493.079 132.177)" fill="#fff"/>
      <path id="Caminho_164" data-name="Caminho 164" d="M4260.1-149.12c-10.914-22.7-17.493-48.539-19.556-76.8-.629-8.631-5.545-14-11.769-20.806-1.684-1.84-3.425-3.745-5.2-5.835-12.938-13.643-19.369-25.023-20.235-35.809-.766-9.541,3.06-17.381,6.758-24.963.023-.049.049-.1.072-.147h.877l-.266.543c-3.814,7.816-7.418,15.2-6.67,24.493.837,10.429,7.379,21.967,20.019,35.3,1.775,2.1,3.511,3.993,5.192,5.829,6.334,6.923,11.34,12.393,11.991,21.332,4.446,60.949,29.493,103.131,62.107,133.132v1.344q-1.415-1.287-2.8-2.593A186.709,186.709,0,0,1,4260.1-149.12" transform="translate(-4159.657 132.177)" fill="#fff"/>
      <path id="Caminho_165" data-name="Caminho 165" d="M4321.167-76.435c-14.974-16.808-26.75-29.477-36.212-39.655-23.607-25.4-31.56-33.951-33.815-47.64a189.271,189.271,0,0,1-2.171-28.027c-.282-12.588-.5-22.532-6.453-33.024a420.507,420.507,0,0,0-23.636-36.69c-7.337-10.436-12.639-17.976-14.694-25.384-2.117-7.642-.715-15.062,4.7-24.83.368-.608.726-1.207,1.078-1.8h.918q-.654,1.116-1.34,2.25c-10.884,19.622-4.783,28.3,9.951,49.253a421.187,421.187,0,0,1,23.68,36.759c6.06,10.686,6.285,20.73,6.569,33.446a188.207,188.207,0,0,0,2.161,27.9c2.21,13.426,10.119,21.933,33.6,47.19,9.464,10.18,21.243,22.853,36.223,39.666,2.717,3.05,5.35,5.808,7.915,8.313v1.132q-4.187-4.047-8.471-8.857" transform="translate(-4185.874 132.177)" fill="#fff"/>
      <path id="Caminho_166" data-name="Caminho 166" d="M4476.736-273.361c-1.6,4.269-3.188,8.4-4.725,12.393-6.22,16.163-11.592,30.123-13.766,43.195-4.715,28.346,2.626,52.206,23.118,75.1,21.62,26.656,21.861,40.43,22.075,52.583.11,6.332.217,12.314,3.458,19.46C4514-54.964,4523.182-42.284,4531.28-31.1c10.856,15,20.043,27.686,20.042,41.865a36.72,36.72,0,0,1-4.066,16.365c-16.121,32.882-23.809,54.118-24.927,68.858-1.044,13.752,3.616,21.245,9.516,30.73,7.556,12.148,16.96,27.267,19.28,62.3.681,10.271,4.743,14.063,8.672,17.731a24.564,24.564,0,0,1,5.955,7.283c3.909,8.068,4.748,15.913,2.722,25.436l-.02.359c-.327,5.886-.462,8.324,3.6,13.121,13.543,15.986,23.218,31.177,28.756,45.152,5.1,12.874,6.883,25.217,5.3,36.681-2.218,16.018-10.958,30.986-26.723,45.756-13.466,12.617-30.091,23.479-48.854,35.36-9.664,6.12-19.33,8.663-29.564,11.356-12.138,3.193-24.687,6.5-37.169,16.338-13.638,10.751-26.239,18.007-38.523,22.178a70.8,70.8,0,0,1-32.184,3.571c-19.824-2.484-36.627-13.145-54.418-24.431-4.817-3.057-9.8-6.218-14.817-9.18-8.72-5.151-34.689-25.494-39.468-50.551-4.356-22.84-17.746-27.408-33.248-32.7-7.93-2.707-16.917-5.773-25.5-11.646q-3.972-2.849-7.609-5.361v-1q3.837,2.648,8.029,5.652c8.485,5.811,17.038,8.729,25.308,11.55,15.736,5.37,29.327,10.008,33.775,33.334,4.72,24.743,30.441,44.878,39.08,49.98,5.025,2.97,10.014,6.134,14.837,9.195,34.956,22.176,67.972,43.122,124.279-1.274,12.606-9.939,25.231-13.261,37.442-16.474,10.177-2.676,19.789-5.205,29.355-11.265,18.728-11.86,35.323-22.7,48.738-35.27,15.618-14.634,24.274-29.433,26.462-45.243,3.3-23.816-7.778-50.356-33.859-81.137-4.289-5.062-4.138-7.781-3.807-13.743l.021-.394a.443.443,0,0,1,.011-.071c1.989-9.327,1.175-17-2.646-24.887-1.457-3.006-3.554-4.964-5.775-7.038-4.048-3.779-8.236-7.687-8.938-18.31-2.306-34.805-11.645-49.82-19.15-61.885-5.985-9.625-10.713-17.225-9.646-31.273,1.128-14.861,8.843-36.2,25.015-69.186,4.75-9.683,5.23-18.838,1.515-28.811-3.411-9.153-9.9-18.119-17.416-28.5-8.121-11.22-17.327-23.938-24.47-39.678-3.318-7.315-3.425-13.388-3.539-19.817-.21-12.009-.45-25.618-21.866-52.026-10.642-11.891-17.652-23.834-21.428-36.513-3.639-12.212-4.255-25.072-1.886-39.314,2.189-13.163,7.576-27.162,13.813-43.37,1.537-3.991,3.125-8.119,4.723-12.384,4.9-13.083,3.049-22.151,1.26-30.919a83.667,83.667,0,0,1-1.485-8.886h.782a83.186,83.186,0,0,0,1.459,8.7c1.731,8.482,3.693,18.094-1.3,31.42" transform="translate(-4487.588 132.177)" fill="#fff"/>
      <path id="Caminho_167" data-name="Caminho 167" d="M4471.752-230.649c-3.029,11.6-6.163,23.589-7.8,52.859-1.779,31.921,8.956,46.3,17.58,57.85,5.5,7.371,10.256,13.738,11.1,22.925,3.776,40.807,17.561,54.946,32.156,69.915a173.556,173.556,0,0,1,16.246,18.406c8.14,9.665,11.163,21.253,8.982,34.446-1.752,10.619-6.973,22.252-15.088,33.641-30.258,42.872-19.848,63.261-8.828,84.847,6.712,13.145,13.651,26.737,12.152,46.1.029,3.551,0,7.157-.023,10.648-.177,23.891-.342,46.457,15.684,64,13.625,16.294,23.692,33.592,29.114,50.022,5.478,16.592,6.112,32.011,1.838,44.59-6.483,19.086-23.73,31.059-49.873,34.622-40.533,5.525-56.8,16.261-69.873,24.888-10.574,6.98-18.925,12.491-36.335,11.613-11.648-.588-21.638-3.327-30.545-8.375a67.323,67.323,0,0,1-20.89-18.932c-11.372-15.265-18.405-35.074-25.209-54.229-12.725-35.83-24.743-69.674-63.026-69.308-15.709.221-29.836.256-42.615.089v-.849c12.674.167,26.787.142,42.606-.083,9.344-.089,17.375,1.782,24.557,5.719,6.423,3.522,12.026,8.638,17.127,15.641,9.474,13.008,15.595,30.242,22.076,48.487,13.717,38.63,27.9,78.573,75.954,81,17.176.865,25.028-4.318,35.9-11.492,13.135-8.669,29.483-19.458,70.179-25,25.839-3.522,42.866-15.305,49.242-34.078,4.211-12.392,3.575-27.61-1.839-44.013-5.388-16.327-15.4-33.526-28.947-49.726-7.3-7.986-11.912-17.851-14.11-30.155-1.958-10.964-1.873-22.9-1.786-34.433.024-3.492.051-7.1.021-10.652v-.04c1.487-19.112-5.4-32.6-12.055-45.637-11.148-21.833-21.678-42.458,8.892-85.77,10.713-15.03,25.758-43.717,6.133-67.023a173.092,173.092,0,0,0-16.19-18.341c-7.511-7.7-14.607-14.982-20.369-25.549-6.469-11.864-10.29-26.129-12.026-44.895-.828-8.937-5.511-15.213-10.936-22.479-8.711-11.666-19.551-26.184-17.751-58.433,1.636-29.361,4.781-41.4,7.823-53.039,3.065-11.735,6.237-23.867,7.78-54,.517-10.073,1.371-19.573,2.578-28.608h.782c-1.211,9.046-2.069,18.562-2.586,28.655-1.55,30.222-4.731,42.4-7.809,54.18" transform="translate(-4516.056 132.177)" fill="#fff"/>
      <path id="Caminho_168" data-name="Caminho 168" d="M4483.118-281.028c-4.028,32.095-9.761,70.418-17.04,113.9-4.148,24.774,5.961,44.2,13.344,58.38a106.481,106.481,0,0,1,6.024,12.793c11.793,33.564,22.929,51.2,32.267,64.028,3.727,5.12,8.81,10.737,13.727,16.171,8.665,9.578,16.85,18.624,18.383,25.342,2.024,8.866,1.677,16.383-1.091,23.66-2.494,6.555-6.753,12.359-11.264,18.5-9.836,13.4-22.076,30.066-22.537,64.026-.137,9.59,2.97,18.273,6.894,29.266,5.884,16.476,13.94,39.038,15.764,78.682.986,21.427,11.886,37.614,22.428,53.269,6.424,9.545,12.5,18.56,16.538,28.713a60.571,60.571,0,0,1,3.509,34.348c-2.956,16-11.414,27.789-25.859,36.055-12.726,7.281-28.428,11.02-43.616,14.636-11.383,2.711-22.134,5.271-31.409,9.178-15.521,6.544-28.449,10.2-39.523,11.187-10.379.922-18.924-.532-26.124-4.447-8.572-4.663-15.144-12.722-20.679-25.366-5.053-11.544-8.8-26.046-12.428-40.07-2.384-9.226-1.305-16.245,3.4-22.093,4.18-5.2,10.754-8.854,17.712-12.725,14.18-7.89,30.253-16.835,31.5-41.885.03-.591.1-1.549.208-2.877,5.256-67.452-8.421-97.658-20.822-111.12-10.1-10.967-23.682-15.728-40.363-14.151-6.022.57-12.848.06-20.074-.479-20.522-1.529-41.744-3.112-45.329,20.581l-.006.034c-2.578,11.181-3.479,25.122-4.351,38.6-.783,12.11-1.591,24.633-3.629,34.8-2.329,11.615-5.9,18.713-11.231,22.334-.637.432-1.3.891-1.989,1.368a90.6,90.6,0,0,1-19.425,10.862,81.14,81.14,0,0,1-9.718,3.126v-.847c13.8-3.523,22.347-9.438,28.725-13.852q1.041-.718,2-1.372c5.075-3.445,8.636-10.577,10.886-21.8,2.024-10.106,2.833-22.6,3.614-34.676.874-13.511,1.776-27.483,4.367-38.733,1.661-10.944,7.173-17.613,16.85-20.387,8.487-2.431,19.065-1.644,29.293-.88,7.2.537,13.993,1.043,19.953.479,16.921-1.6,30.71,3.244,40.98,14.395,11.633,12.631,18.8,33.2,21.285,61.132,1.978,22.205.365,42.875-.24,50.657-.1,1.319-.177,2.271-.208,2.852-1.274,25.532-17.556,34.593-31.924,42.587-13.822,7.693-25.758,14.335-20.717,33.84,7.606,29.422,14.175,54.833,32.707,64.91,14.586,7.932,35.249,5.78,65.022-6.771,9.328-3.933,20.11-6.5,31.523-9.217,30.669-7.3,62.381-14.852,68.88-50.034,4.759-25.754-7.225-43.552-19.912-62.4-10.61-15.755-21.58-32.048-22.577-53.725-1.819-39.51-9.848-62-15.711-78.421-3.956-11.078-7.087-19.825-6.946-29.584.462-34.248,12.794-51.043,22.7-64.54,9.234-12.575,16.527-22.508,12.207-41.431-1.48-6.493-9.972-15.879-18.183-24.954-4.93-5.45-10.029-11.083-13.781-16.24-9.375-12.876-20.551-30.578-32.382-64.249a105.93,105.93,0,0,0-5.976-12.678c-7.438-14.295-17.629-33.873-13.43-58.948,7.277-43.472,13.007-81.783,17.034-113.865q.626-4.986,1.235-9.93c.937-7.576,1.865-15.075,2.845-22.412h.783c-.983,7.372-1.917,14.91-2.86,22.524q-.612,4.942-1.236,9.931" transform="translate(-4525.86 132.177)" fill="#fff"/>
      <path id="Caminho_169" data-name="Caminho 169" d="M4483.131-205.441c-12.529,64.209-10.778,82.184-9.371,96.625.816,8.358,1.52,15.577-1.023,30.094-4.011,22.9-3.448,36.785,1.777,43.706,4.808,6.37,13.09,6.437,22.681,6.515,8.768.071,18.707.151,27.542,5.383,10.157,6.013,17.167,17.858,21.435,36.211a66.169,66.169,0,0,1,1.853,15.013c0,16.795-7.8,28-16.546,40.544-8.283,11.891-17.671,25.367-21.1,46.027-3.009,18.11,2.936,40.214,12.888,74.779,2,6.94,3.474,13.712,5.038,20.882,4.465,20.474,9.527,43.681,29.034,81.578,5.439,10.566,8.163,20.333,8.163,29.21a38.005,38.005,0,0,1-3.886,17.06c-4.565,9.242-12.973,16.766-24.989,22.365-10.362,4.828-22.956,7.954-36.419,9.041l-.639.051c-34.7,2.8-45.172,3.647-50.73-24.418-2.829-16.483,7.846-24.319,18.171-31.893,9.045-6.637,18.4-13.5,18.689-26.215,3.065-76.525-2.165-124.943-16.453-152.369-12.664-24.31-30.828-28.98-50.059-33.924-10.444-2.685-21.246-5.461-31.455-11.559-9.488-5.668-21.317-14.48-28.653-32.479-3.7-9.082-18.08-10.432-29.632-11.517-1.061-.1-2.1-.2-3.1-.3a85.138,85.138,0,0,0-39.676,5.5,61.982,61.982,0,0,0-6.952,3.364v-.949a63.187,63.187,0,0,1,6.679-3.2,85.905,85.905,0,0,1,40.021-5.55c1,.1,2.034.2,3.092.3,11.756,1.1,26.386,2.476,30.273,12.016,7.243,17.769,18.938,26.478,28.318,32.08,10.117,6.043,20.867,8.807,31.261,11.479,19.4,4.987,37.723,9.7,50.555,34.328,6.855,13.155,11.544,30.872,14.339,54.16,3.11,25.919,3.834,58.191,2.213,98.654-.3,13.141-9.821,20.128-19.03,26.884-10.582,7.765-20.579,15.1-17.846,31.028,2.745,13.858,6.667,20.351,13.992,23.163,7.493,2.877,18.8,1.965,35.923.582l.639-.053c13.378-1.079,25.887-4.182,36.172-8.975,11.85-5.521,20.13-12.918,24.611-21.987,6.215-12.582,4.778-27.878-4.271-45.459-19.56-38-24.635-61.267-29.112-81.8-1.561-7.156-3.035-13.914-5.025-20.824-8.213-28.53-13.706-48.6-13.706-65.015a61.754,61.754,0,0,1,.8-10.167c3.465-20.857,12.914-34.419,21.251-46.384,10.988-15.772,20.477-29.393,14.559-54.842-9.453-40.645-30.955-40.82-48.235-40.959-9.783-.08-18.233-.147-23.271-6.824-5.382-7.128-6-21.236-1.941-44.4,2.521-14.395,1.824-21.556,1.016-29.847-1.413-14.5-3.172-32.548,9.382-96.888,5.721-29.313,10.033-53.931,13.855-86.037.849-7.136,1.811-14.376,2.9-21.831h.786c-1.1,7.493-2.068,14.77-2.922,21.938-3.824,32.135-8.139,56.771-13.863,86.1" transform="translate(-4549.268 132.177)" fill="#fff"/>
      <path id="Caminho_170" data-name="Caminho 170" d="M4497.842,172.591c-10.337,6.758-19.265,12.595-25.271,16.9-14.839,10.641-27.811,18.566-39.658,24.228-11.783,5.63-22.524,9.055-32.842,10.472-18.821,2.587-36.447-1.292-58.935-12.974q-2.556-1.328-5.033-2.618c-24.646-12.838-44.114-22.978-80.093-33.9-23.165-7.036-40.13-13.613-52.768-20.609v-.952c12.286,6.836,29.146,13.511,52.977,20.748,36.043,10.946,55.537,21.1,80.219,33.954q2.478,1.293,5.031,2.62c38.638,20.07,69.457,22.229,130.675-21.67,6.02-4.316,14.954-10.158,25.3-16.92,21.061-13.769,49.9-32.625,77.181-53.654,13.642-10.514,28.705-22.789,41.933-36.239v1.192c-10.768,10.86-24.032,22.281-41.486,35.736-27.3,21.046-56.158,39.911-77.228,53.687" transform="translate(-4472.792 454.195)" fill="#fff"/>
      <path id="Caminho_171" data-name="Caminho 171" d="M4203.589-69.866c-1.486-13.172,1.808-21.84,9.788-25.768a15.361,15.361,0,0,1,7.036-1.539v.847a14.648,14.648,0,0,0-6.717,1.459c-7.634,3.759-10.776,12.136-9.337,24.9,1.2,10.6,5.21,21.964,8.573,30.681,1.555,4.03,4.281,7.718,7.481,11.385v1.219c-3.494-3.937-6.5-7.89-8.194-12.277-3.384-8.768-7.421-20.206-8.629-30.906" transform="translate(-4076.648 308.316)" fill="#fff"/>
      <path id="Caminho_172" data-name="Caminho 172" d="M4536.673,137.871c-4.623,2.975-9.4,6.054-14.5,9.382-46.057,30.086-81.4,49.3-111.224,60.459-30.027,11.236-55.539-3.667-74.168-14.549a129.874,129.874,0,0,0-14.522-7.763c-6.2-2.573-12.366-4.911-18.331-7.174-20.257-7.68-39.392-14.935-57.872-30.266-19.7-16.345-32.958-30.571-42.818-43.109v-1.3c9.894,12.685,23.247,27.115,43.289,43.742,18.381,15.249,37.458,22.481,57.654,30.139,5.972,2.264,12.146,4.6,18.353,7.181a130.636,130.636,0,0,1,14.614,7.811c18.5,10.808,43.842,25.609,73.548,14.493,29.773-11.142,65.068-30.329,111.077-60.383,5.1-3.329,9.879-6.408,14.5-9.385,25.473-16.4,43.878-28.252,62.557-48.574a148.139,148.139,0,0,0,17.72-23.234v1.526a150.2,150.2,0,0,1-17.171,22.3c-18.75,20.4-37.188,32.271-62.711,48.7" transform="translate(-4472.792 440.647)" fill="#fff"/>
      <path id="Caminho_173" data-name="Caminho 173" d="M4247.882,49.251c-11.872-23.335-25.329-49.786-34.4-75.826-10.554-30.29-12.918-53.8-7.232-71.887,4.651-14.8,14.935-26.01,30.559-33.319,11.967-5.6,20.031-5.015,27.351-1.789v.927c-7.25-3.257-15.205-3.9-27.046,1.637-15.414,7.212-25.552,18.252-30.131,32.819-5.625,17.889-3.262,41.217,7.224,71.314,9.054,25.984,22.495,52.406,34.355,75.717,2.238,4.4,4.354,8.56,6.39,12.615a120.476,120.476,0,0,1,9.207,26.822v3.536c-2.319-10.641-5.255-20.723-9.887-29.954-2.035-4.053-4.149-8.211-6.389-12.611" transform="translate(-4120.394 276.699)" fill="#fff"/>
      <path id="Caminho_174" data-name="Caminho 174" d="M4551.724,141.772l-8.006,5.849c-41.4,30.242-71.305,52.092-94.625,66.169-23.9,14.431-40.839,20.589-56.627,20.589-16.785,0-33.066-8.148-53.68-18.462-8.361-4.186-17.008-8.513-26.8-12.881-26.814-11.967-41.953-16.339-54.119-19.854-8.383-2.422-15.624-4.512-24.568-8.42l-2.85-1.243c-8.12-3.536-17.621-7.676-27.209-12.611v-.933c9.683,5,19.3,9.189,27.5,12.762l2.851,1.243c8.9,3.888,16.119,5.973,24.479,8.387,12.186,3.52,27.352,7.9,54.214,19.888,9.8,4.376,18.458,8.707,26.828,12.894,20.527,10.273,36.739,18.386,53.354,18.386,15.648,0,32.47-6.125,56.25-20.482,23.291-14.061,53.188-35.9,94.569-66.133l7.987-5.833c8.471-7.078,16.63-13.709,24.518-20.122,15.2-12.357,28.9-23.491,40.765-34.459v1.1c-11.77,10.833-25.3,21.837-40.3,34.029-7.887,6.412-16.042,13.041-24.53,20.131" transform="translate(-4472.792 457.885)" fill="#fff"/>
    </g>
  </g>
</svg>
