<svg xmlns="http://www.w3.org/2000/svg" width="17.072" height="22.756" viewBox="0 0 17.072 22.756">
  <path id="Caminho_19" data-name="Caminho 19" d="M402.286,358.509H388.593a4.005,4.005,0,0,1-.608-.2A1.883,1.883,0,0,1,386.9,356.5q0-5.755,0-11.51c0-.56.138-.7.691-.7H388.8c0-.614,0-1.2,0-1.782a6.648,6.648,0,0,1,8.142-6.567,6.594,6.594,0,0,1,5.122,6.322c.008.592.005,1.185.007,1.777,0,.079,0,.157,0,.248.462,0,.891,0,1.32,0,.392,0,.579.181.579.566q0,5.855,0,11.71a1.784,1.784,0,0,1-.78,1.563A4.947,4.947,0,0,1,402.286,358.509Zm-3.057-14.23c0-.647,0-1.275,0-1.9a3.581,3.581,0,0,0-.784-2.287,3.786,3.786,0,0,0-6.658,1.322,11.03,11.03,0,0,0-.128,2.829c0,.011.017.022.03.039Zm-3.789,10.44c.289,0,.578.006.866,0a.506.506,0,0,0,.544-.636c-.091-.809-.183-1.618-.265-2.427a.328.328,0,0,1,.088-.241,1.871,1.871,0,0,0,.641-1.647,1.893,1.893,0,0,0-2.283-1.64,1.9,1.9,0,0,0-.826,3.287.326.326,0,0,1,.088.241c-.082.81-.175,1.618-.265,2.427a.506.506,0,0,0,.545.635C394.862,354.726,395.151,354.719,395.44,354.719Z" transform="translate(-386.904 -335.753)" fill="#fff"/>
</svg>
