<svg xmlns="http://www.w3.org/2000/svg" width="18.971" height="22.757" viewBox="0 0 18.971 22.757">
  <g id="Grupo_1" data-name="Grupo 1" transform="translate(0 0)">
    <path id="Caminho_17" data-name="Caminho 17" d="M372.9,545.163c-.258-.054-.521-.093-.774-.164a3.56,3.56,0,0,1-2.719-3.41,12.145,12.145,0,0,1,.788-5.139,4.719,4.719,0,0,1,2.109-2.544,4.153,4.153,0,0,1,2.07-.5,1.6,1.6,0,0,1,.68.234c.337.183.65.411.977.613a5.058,5.058,0,0,0,5.709,0c.264-.164.534-.322.782-.507a1.893,1.893,0,0,1,1.5-.3,4.215,4.215,0,0,1,3.221,2.315,9.512,9.512,0,0,1,1.036,3.691,18.332,18.332,0,0,1,.087,1.995,3.639,3.639,0,0,1-3.361,3.68.857.857,0,0,0-.144.042Z" transform="translate(-369.395 -522.406)" fill="#fff"/>
    <path id="Caminho_18" data-name="Caminho 18" d="M449.788,341.282a5.483,5.483,0,1,1-5.483-5.476A5.481,5.481,0,0,1,449.788,341.282Z" transform="translate(-434.958 -335.806)" fill="#fff"/>
  </g>
</svg>
