<svg xmlns="http://www.w3.org/2000/svg" width="22.713" height="17.021" viewBox="0 0 22.713 17.021">
  <g id="Grupo_3" data-name="Grupo 3" transform="translate(-348 -396.111)">
    <path id="Caminho_28" data-name="Caminho 28" d="M348,487.408V476.982a.6.6,0,0,1,.1.043l9.2,6.136a3.421,3.421,0,0,0,4.116,0q4.113-2.74,8.224-5.481c.355-.237.716-.466,1.074-.7v10.426c-.008.012-.021.023-.025.036a2.1,2.1,0,0,1-2.272,1.775h-9.159q-4.524,0-9.048,0a2.187,2.187,0,0,1-1.574-.6A2.349,2.349,0,0,1,348,487.408Z" transform="translate(0 -76.087)" fill="#fff"/>
    <path id="Caminho_29" data-name="Caminho 29" d="M370.713,397.922v.577a2.24,2.24,0,0,1-.948,1.412q-4.6,3.055-9.185,6.118a2.064,2.064,0,0,1-2.466-.012q-4.582-3.054-9.165-6.109a2.012,2.012,0,0,1-.913-1.332A.352.352,0,0,0,348,398.5v-.577c.037-.127.068-.255.11-.38a2.111,2.111,0,0,1,2.121-1.431h18.251c.066,0,.133,0,.2,0a2.1,2.1,0,0,1,1.921,1.429C370.644,397.668,370.677,397.8,370.713,397.922Z" fill="#fff"/>
  </g>
</svg>
