<svg xmlns="http://www.w3.org/2000/svg" width="142.101" height="80.857" viewBox="0 0 142.101 80.857">
  <g id="Marca" transform="translate(-443.879 -275.437)">
    <path id="Caminho_20" data-name="Caminho 20" d="M518.971,297.124a16.171,16.171,0,1,0,0,3.424h3.823a19.874,19.874,0,0,1-16.649,18,20.28,20.28,0,0,1-7.838-.265,19.981,19.981,0,0,1-8.784-4.6,20.275,20.275,0,0,1-2.865-3.2,19.972,19.972,0,0,1,16.234-31.616v-3.424a23.18,23.18,0,0,0-14.251,4.838,23.4,23.4,0,1,0,37.651,18.561v-1.713Zm-10.612,13.222a12.7,12.7,0,0,1-2.722.934,14.4,14.4,0,0,0,.171-2.2,14.206,14.206,0,0,0-1.369-6.123,14.418,14.418,0,0,0-4.56-5.5,14.25,14.25,0,0,0-8.435-2.736c-.206,0-.411.005-.615.015a12.731,12.731,0,0,1,1.231-2.6,16.771,16.771,0,0,1,9.781,3.546,16.948,16.948,0,0,1,6.566,13.4c0,.423-.017.847-.048,1.268m-16.914-9.608a8.558,8.558,0,0,0-1.144.078,12.7,12.7,0,0,1-.155-1.979c0-.209.007-.416.016-.622a11.073,11.073,0,0,1,1.283-.075,10.846,10.846,0,0,1,6.421,2.082,10.975,10.975,0,0,1,3.476,4.195,10.826,10.826,0,0,1,1.041,4.662,10.961,10.961,0,0,1-.284,2.477,12.73,12.73,0,0,1-2.572-.427,8.336,8.336,0,0,0-8.083-10.39m-.127,3.428.127,0a4.919,4.919,0,0,1,4.915,4.915,5.069,5.069,0,0,1-.045.67,12.829,12.829,0,0,1-5-5.582m20.48,3.775a20.4,20.4,0,0,0-16.962-18.973A12.737,12.737,0,0,1,511.8,307.94" transform="translate(12.038)" fill="#fff"/>
    <path id="Caminho_21" data-name="Caminho 21" d="M465.269,340.875h-3.643a19.64,19.64,0,0,1-.352-2.115c-1.293,1.557-3.086,2.556-6.964,2.556-6.7,0-10.43-4.612-10.43-10.665s3.967-10.9,11.371-10.9c6.641,0,9.491,3.614,10.049,6.61h-5.054c-.411-1.057-1.616-2.821-4.995-2.821-4.26,0-6.081,3.027-6.081,6.876,0,4.054,1.909,7.081,6.14,7.081,3.5,0,5.083-1.822,5.083-4.29v-.324h-5.024v-3.878h9.9Z" transform="translate(0 14.979)" fill="#fff"/>
    <path id="Caminho_22" data-name="Caminho 22" d="M466.673,333.046a3.442,3.442,0,0,0,3.73,3.29c1.793,0,2.645-.559,3.2-1.5h4.818c-.939,2.706-3.2,5.054-8.079,5.054-6.229,0-8.462-4.113-8.462-7.989,0-4.262,2.878-8.023,8.432-8.023,5.9,0,8.285,4.084,8.285,8.023,0,.38,0,.674-.029,1.145Zm7.051-2.94c-.088-1.145-.705-2.849-3.437-2.849-2.5,0-3.437,1.35-3.555,2.849Z" transform="translate(6.086 16.374)" fill="#fff"/>
    <path id="Caminho_23" data-name="Caminho 23" d="M493.181,331.87c0,4.671-3.231,8.021-8.872,8.021-5.671,0-8.55-3.791-8.55-8.021,0-4.143,3-7.992,8.727-7.992,5.934,0,8.7,4.231,8.7,7.992m-12.545,0c0,2.38,1.322,4.407,3.82,4.407,2.585,0,3.791-2,3.791-4.319,0-2.292-1.147-4.437-3.82-4.437-2.616,0-3.791,2.027-3.791,4.349" transform="translate(10.776 16.374)" fill="#fff"/>
    <rect id="Retângulo_7" data-name="Retângulo 7" width="5.024" height="20.685" transform="translate(506.924 335.169)" fill="#fff"/>
    <path id="Caminho_24" data-name="Caminho 24" d="M497.524,328.138c0-1.293,0-2.762-.029-3.85h4.671c.059.442.118,1.351.147,1.97.705-1.058,2.086-2.38,5.054-2.38,3.732,0,5.935,2.322,5.935,6.229v9.373h-4.848v-8.609c0-1.734-.677-3.261-2.822-3.261-2.261,0-3.29,1.556-3.29,4.29v7.58h-4.818Z" transform="translate(18.124 16.374)" fill="#fff"/>
    <path id="Caminho_25" data-name="Caminho 25" d="M528.706,331.87c0,4.671-3.231,8.021-8.873,8.021-5.671,0-8.55-3.791-8.55-8.021,0-4.143,3-7.992,8.727-7.992,5.934,0,8.7,4.231,8.7,7.992m-12.545,0c0,2.38,1.322,4.407,3.82,4.407,2.585,0,3.789-2,3.789-4.319,0-2.292-1.145-4.437-3.819-4.437-2.616,0-3.791,2.027-3.791,4.349" transform="translate(22.784 16.374)" fill="#fff"/>
    <path id="Caminho_26" data-name="Caminho 26" d="M529.8,324.185c2.057,5.877,3.378,9.167,3.908,11.048h.057c.53-1.911,1.587-4.849,3.85-11.048H542.5l-6.258,15.191h-5.347l-6.259-15.191Z" transform="translate(27.297 16.478)" fill="#fff"/>
    <path id="Caminho_27" data-name="Caminho 27" d="M553.994,335.22c0,1.968.088,3.935.118,4.259h-4.524a10.443,10.443,0,0,1-.177-1.7c-.823,1.293-2.557,2.114-5.435,2.114-4.144,0-5.819-2.526-5.819-4.965,0-3.965,3.5-5.083,7.963-5.083h3.174v-.468c0-1.234-.528-2.234-2.762-2.234-2.057,0-2.528.764-2.734,1.647h-4.789c.118-1.881,1.441-4.908,7.464-4.908,6.582,0,7.521,3.114,7.521,5.641Zm-4.7-2.352c-.353-.028-1.381-.028-3.085-.028-2.438,0-3.408.646-3.408,1.852,0,1,.793,1.792,2.557,1.792,2.615,0,3.936-1.2,3.936-3.379Z" transform="translate(31.869 16.374)" fill="#fff"/>
  </g>
</svg>
