<svg xmlns="http://www.w3.org/2000/svg" width="32.188" height="32.248" viewBox="0 0 32.188 32.248">
  <path id="Caminho_615" data-name="Caminho 615" d="M1175.47,515.346a16.094,16.094,0,0,1-32.187.023,16.219,16.219,0,0,1,16.029-16.2A16.044,16.044,0,0,1,1175.47,515.346Zm-12.3,1.32c-.139.155-.221.253-.31.344-.624.642-1.258,1.275-1.873,1.927a1.143,1.143,0,0,0,.038,1.712,1.159,1.159,0,0,0,1.714.007q2.2-2.226,4.37-4.476a1.194,1.194,0,0,0,0-1.76q-2.226-2.254-4.479-4.482a1.229,1.229,0,0,0-1.718,1.758c.635.65,1.284,1.287,1.925,1.931.078.079.147.168.265.305h-.5c-3.248,0-6.5-.009-9.743.013a1.972,1.972,0,0,0-1,.3,1.268,1.268,0,0,0-.455,1.5,1.38,1.38,0,0,0,1.367.918q4.952,0,9.9,0Z" transform="translate(-1143.282 -499.173)" fill="#fff"/>
</svg>
